<?xml version="1.0" encoding="utf-8"?>
<!-- Generator: Adobe Illustrator 16.0.0, SVG Export Plug-In . SVG Version: 6.00 Build 0)  -->
<!DOCTYPE svg PUBLIC "-//W3C//DTD SVG 1.1//EN" "http://www.w3.org/Graphics/SVG/1.1/DTD/svg11.dtd">
<svg version="1.1" id="Layer_1" xmlns="http://www.w3.org/2000/svg" xmlns:xlink="http://www.w3.org/1999/xlink" x="0px" y="0px"
	 width="50px" height="50px" viewBox="0 0 50 50" enable-background="new 0 0 50 50" xml:space="preserve">
<g>
	<path fill="#FFFFFF" d="M20.58,34.92l3.502-6.867l0.59,0.301l-0.229,0.443c-0.211,0.416-0.271,0.781-0.178,1.105
		c0.088,0.322,0.305,0.566,0.645,0.74c0.371,0.188,0.871,0.303,1.492,0.34l9.799,0.713l-6.633-7.674
		c-0.471-0.546-0.861-0.902-1.168-1.061c-0.148-0.072-0.293-0.093-0.432-0.055c-0.217,0.035-0.404,0.128-0.555,0.275
		c-0.15,0.152-0.365,0.506-0.646,1.056l-0.59-0.301l2.428-4.763l0.588,0.301c-0.236,0.572-0.322,1.014-0.246,1.319
		c0.129,0.534,0.488,1.137,1.082,1.815l9.887,11.565l-0.332,0.654l-14.977-1.066c-0.693-0.059-1.219-0.047-1.58,0.037
		c-0.355,0.086-0.703,0.252-1.041,0.492c-0.188,0.133-0.459,0.443-0.816,0.93L20.58,34.92z"/>
</g>
<circle fill="#FFFFFF" cx="12.93" cy="19.586" r="3.318"/>
</svg>
