<?xml version="1.0" encoding="utf-8"?>
<!-- Generator: Adobe Illustrator 16.0.0, SVG Export Plug-In . SVG Version: 6.00 Build 0)  -->
<!DOCTYPE svg PUBLIC "-//W3C//DTD SVG 1.1//EN" "http://www.w3.org/Graphics/SVG/1.1/DTD/svg11.dtd">
<svg version="1.1" id="Layer_1" xmlns="http://www.w3.org/2000/svg" xmlns:xlink="http://www.w3.org/1999/xlink" x="0px" y="0px"
	 width="50px" height="50px" viewBox="0 0 50 50" enable-background="new 0 0 50 50" xml:space="preserve">
<g>
	<path fill="#FFFFFF" d="M30.492,9.437c0.279,0.805,0.432,1.551,0.451,2.238c0.021,0.48-0.116,1.652-0.412,3.519l2.4-1.517
		c0.614-0.353,1.297-0.646,2.055-0.877c0.753-0.232,1.381-0.343,1.87-0.332c0.312,0.008,0.622,0.081,0.94,0.223
		c0.467,0.208,0.784,0.5,0.952,0.873c0.167,0.374,0.167,0.741,0.006,1.102c-0.182,0.414-0.39,0.661-0.621,0.741
		c-0.427,0.135-0.835,0.118-1.228-0.058c-0.229-0.102-0.45-0.259-0.668-0.474c-0.436-0.402-0.741-0.641-0.915-0.72
		c-0.263-0.117-0.641-0.103-1.136,0.042c-0.928,0.267-2.221,1.003-3.883,2.208l-1.162,6.221c-0.178,0.951-0.232,1.542-0.163,1.775
		c0.065,0.233,0.169,0.379,0.312,0.443c0.229,0.102,0.552,0.096,0.968-0.019c0.823-0.236,1.626-0.661,2.409-1.277l0.441,0.548
		c-1.258,0.981-2.605,1.66-4.041,2.039c-0.812,0.214-1.428,0.228-1.841,0.044c-0.612-0.273-0.942-0.832-0.995-1.679
		c-0.038-0.526,0.301-2.568,1.021-6.125c-3.013,2.198-5.221,3.491-6.625,3.885c-0.908,0.249-1.672,0.236-2.293-0.041
		c-0.435-0.194-0.761-0.53-0.98-1.007c-0.156-0.355-0.142-0.734,0.036-1.137c0.162-0.36,0.416-0.606,0.759-0.74
		c0.346-0.133,0.694-0.121,1.044,0.034c0.347,0.156,0.643,0.494,0.878,1.018c0.172,0.375,0.335,0.599,0.487,0.666
		c0.129,0.059,0.337,0.047,0.621-0.035c0.699-0.185,1.791-0.77,3.286-1.749c1.493-0.979,2.512-1.714,3.06-2.204
		c0.5-2.947,0.758-4.51,0.773-4.687c0.063-0.82-0.04-1.466-0.312-1.941c-0.271-0.473-0.799-0.885-1.584-1.235
		c-0.25-0.11-0.545-0.229-0.88-0.353l0.26-0.589L30.492,9.437z"/>
</g>
<circle fill="#FFFFFF" cx="13.93" cy="39.586" r="3.318"/>
</svg>
